#!OML:ASF H:\Pregnant\Project 1\Capture day 1\Session 1\femalepreg.ASF
:FULLY-SPECIFIED
:DEGREES
585
root 7.01304 15.6741 24.9697 79.9631 -87.7349 -65.7821
lowerback -18.8143 0.125321 -0.644077
upperback -6.4484 -0.174815 1.11837
thorax 3.59983 -0.243781 1.5031
lowerneck -18.5834 8.53969 9.20735
upperneck 26.8809 10.2485 -4.0253
head 12.7556 4.86185 -1.36937
rclavicle -1.50816e-015 -9.28076e-015
rhumerus -36.9394 0.24794 -82.0515
rradius 24.366
rwrist -7.02119
rhand -18.3501 -24.1915
rfingers 7.12502
rthumb 7.93243 -54.0227
lclavicle -1.50816e-015 -9.28076e-015
lhumerus -42.1312 -16.9514 93.9048
lradius 28.7333
lwrist 41.6336
lhand -26.1279 -4.31004
lfingers 7.12502
lthumb 0.422248 25.6693
rfemur -21.0619 19.9873 15.4662
rtibia 26.348
rfoot -14.8024 -18.1564
rtoes -13.9201
lfemur 0 0 0
ltibia 0
lfoot 0 0
ltoes 0
586
root 7.02206 15.6766 24.9692 78.649 -87.7162 -64.418
lowerback -18.7342 0.150989 -0.589013
upperback -6.4539 -0.149339 1.10887
thorax 3.55157 -0.230837 1.46705
lowerneck -18.6642 8.48616 9.1688
upperneck 26.7839 10.1666 -3.99753
head 12.7218 4.82656 -1.36496
rclavicle -1.65046e-015 -7.9048e-016
rhumerus -36.7463 -0.886534 -81.5349
rradius 23.3021
rwrist -4.90528
rhand -18.6751 -24.1022
rfingers 7.12502
rthumb 7.61874 -53.9449
lclavicle -1.65046e-015 -7.9048e-016
lhumerus -41.7565 -17.0591 93.8331
lradius 27.9815
lwrist 39.9102
lhand -25.9718 -4.31503
lfingers 7.12502
lthumb 0.572972 25.6639
rfemur -21.1307 20.0173 15.4309
rtibia 26.3264
rfoot -14.7766 -18.2132
rtoes -13.8133
lfemur 0 0 0
ltibia 0
lfoot 0 0
ltoes 0
587
root 7.03095 15.6791 24.9687 77.2964 -87.6967 -63.0099
lowerback -18.6567 0.175132 -0.541482
upperback -6.45964 -0.124674 1.10327
thorax 3.50446 -0.218265 1.43922
lowerneck -18.7591 8.43072 9.12782
upperneck 26.6905 10.0817 -3.96964
head 12.6921 4.78947 -1.36011
rclavicle -3.47019e-015 3.54085e-015
rhumerus -36.6623 -1.86059 -81.0971
rradius 22.5037
rwrist -3.05049
rhand -19.103 -24.077
rfingers 7.12502
rthumb 7.20575 -53.9344
lclavicle -3.47019e-015 3.54085e-015
lhumerus -41.481 -17.3052 93.8549
lradius 27.4475
lwrist 38.4462
lhand -25.838 -4.27383
lfingers 7.12502
lthumb 0.70217 25.7048
rfemur -21.2046 20.0437 15.3925
rtibia 26.3053
rfoot -14.7533 -18.27
rtoes -13.7062
lfemur 0 0 0
ltibia 0
lfoot 0 0
ltoes 0
588
root 7.03979 15.6819 24.9684 75.8037 -87.6763 -61.4534
lowerback -18.5829 0.195894 -0.501974
upperback -6.46645 -0.103162 1.09999
thorax 3.45825 -0.207246 1.4177
lowerneck -18.8621 8.37527 9.09599
upperneck 26.5968 9.99713 -3.95391
head 12.6654 4.75166 -1.36099
rclavicle -2.43045e-015 1.0871e-014
rhumerus -36.6777 -2.59689 -80.7799
rradius 21.9679
rwrist -1.56008
rhand -19.6257 -24.1125
rfingers 7.12502
rthumb 6.70118 -53.9865
lclavicle -2.43045e-015 1.0871e-014
lhumerus -41.2767 -17.6336 93.9373
lradius 27.0922
lwrist 37.1989
lhand -25.727 -4.19943
lfingers 7.12502
lthumb 0.809418 25.7788
rfemur -21.287 20.0572 15.3488
rtibia 26.2862
rfoot -14.7298 -18.3242
rtoes -13.6083
lfemur 0 0 0
ltibia 0
lfoot 0 0
ltoes 0
589
root 7.04863 15.6848 24.9681 74.1991 -87.6576 -59.7783
lowerback -18.511 0.212222 -0.475419
upperback -6.47414 -0.0854394 1.1017
thorax 3.41217 -0.198014 1.40801
lowerneck -18.97 8.31805 9.06516
upperneck 26.5005 9.91176 -3.94606
head 12.6392 4.71249 -1.36501
rclavicle -3.3871e-015 -3.8266e-015
rhumerus -36.778 -3.07326 -80.5918
rradius 21.6773
rwrist -0.466465
rhand -20.0384 -24.1246
rfingers 7.12502
rthumb 6.30277 -54.0108
lclavicle -3.3871e-015 -3.8266e-015
lhumerus -41.1146 -17.9812 94.0526
lradius 26.8767
lwrist 36.1361
lhand -25.6283 -4.11646
lfingers 7.12502
lthumb 0.904703 25.8614
rfemur -21.3774 20.0656 15.2976
rtibia 26.2701
rfoot -14.7001 -18.3862
rtoes -13.5455
lfemur 0 0 0
ltibia 0
lfoot 0 0
ltoes 0
590
root 7.05742 15.6878 24.9681 72.5043 -87.6395 -58.0078
lowerback -18.4405 0.21932 -0.464016
upperback -6.48216 -0.0776399 1.11265
thorax 3.36671 -0.193542 1.41459
lowerneck -19.0807 8.26408 9.04344
upperneck 26.4034 9.83294 -3.95436
head 12.6154 4.6749 -1.37532
rclavicle 1.83255e-016 -7.20594e-016
rhumerus -36.9489 -3.29094 -80.5314
rradius 21.6069
rwrist 0.243092
rhand -20.4549 -24.1358
rfingers 7.12502
rthumb 5.90067 -54.0336
lclavicle 1.83255e-016 -7.20594e-016
lhumerus -41.0038 -18.3558 94.2098
lradius 26.8079
lwrist 35.2988
lhand -25.5543 -4.04113
lfingers 7.12502
lthumb 0.976237 25.9364
rfemur -21.4749 20.05 15.2422
rtibia 26.2575
rfoot -14.6707 -18.434
rtoes -13.5045
lfemur 0 0 0
ltibia 0
lfoot 0 0
ltoes 0
591
root 7.0662 15.6908 24.9681 70.7838 -87.6223 -56.2075
lowerback -18.3698 0.222997 -0.465701
upperback -6.49047 -0.0724621 1.13202
thorax 3.32089 -0.190208 1.43697
lowerneck -19.198 8.20852 9.01446
upperneck 26.3068 9.75592 -3.96964
head 12.5933 4.6363 -1.38661
rclavicle 1.40081e-015 5.76476e-015
rhumerus -37.1818 -3.2448 -80.5982
rradius 21.7356
rwrist 0.566134
rhand -20.7413 -24.0775
rfingers 7.12502
rthumb 5.62413 -53.9829
lclavicle 1.40081e-015 5.76476e-015
lhumerus -40.949 -18.7793 94.4178
lradius 26.8849
lwrist 34.7101
lhand -25.4713 -3.99261
lfingers 7.12502
lthumb 1.05634 25.9845
rfemur -21.5782 20.0271 15.1814
rtibia 26.2475
rfoot -14.639 -18.4795
rtoes -13.481
lfemur 0 0 0
ltibia 0
lfoot 0 0
ltoes 0
592
root 7.07476 15.6939 24.9684 69.1056 -87.6062 -54.4477
lowerback -18.2994 0.225753 -0.474917
upperback -6.49963 -0.0674725 1.15594
thorax 3.27422 -0.186889 1.46839
lowerneck -19.3158 8.15163 8.98319
upperneck 26.2077 9.67938 -3.99022
head 12.5704 4.59698 -1.39948
rclavicle 7.15625e-015 1.83876e-015
rhumerus -37.4639 -2.96554 -80.7821
rradius 22.0267
rwrist 0.545568
rhand -20.9641 -23.9766
rfingers 7.12502
rthumb 5.40897 -53.8875
lclavicle 7.15625e-015 1.83876e-015
lhumerus -40.9154 -19.1776 94.6288
lradius 27.0556
lwrist 34.3063
lhand -25.389 -3.99446
lfingers 7.12502
lthumb 1.13587 25.9823
rfemur -21.684 19.996 15.1174
rtibia 26.2385
rfoot -14.6064 -18.5194
rtoes -13.4625
lfemur 0 0 0
ltibia 0
lfoot 0 0
ltoes 0
593
root 7.08335 15.6969 24.9687 67.5132 -87.587 -52.7653
lowerback -18.2324 0.228559 -0.488408
upperback -6.51242 -0.0623035 1.1859
thorax 3.22548 -0.183507 1.50864
lowerneck -19.4356 8.09329 8.9387
upperneck 26.1086 9.60323 -4.00475
head 12.5468 4.55726 -1.40784
rclavicle 6.51641e-015 7.30534e-015
rhumerus -37.7851 -2.52595 -81.0441
rradius 22.4464
rwrist 0.276201
rhand -21.0996 -23.8209
rfingers 7.12502
rthumb 5.27819 -53.7352
lclavicle 6.51641e-015 7.30534e-015
lhumerus -40.9246 -19.5921 94.8688
lradius 27.3425
lwrist 34.1522
lhand -25.3403 -4.03261
lfingers 7.12502
lthumb 1.18294 25.9439
rfemur -21.7987 20.0205 15.0441
rtibia 26.2287
rfoot -14.5639 -18.612
rtoes -13.4476
lfemur 0 0 0
ltibia 0
lfoot 0 0
ltoes 0
594
root 7.09181 15.7 24.9691 65.9485 -87.5622 -51.1016
lowerback -18.1719 0.238437 -0.494878
upperback -6.52922 -0.0491774 1.2111
thorax 3.17557 -0.176399 1.54148
lowerneck -19.5601 8.03076 8.9023
upperneck 26.0089 9.52058 -4.02751
head 12.5245 4.51429 -1.42166
rclavicle 2.40405e-015 1.49089e-015
rhumerus -38.1435 -1.8729 -81.4234
rradius 22.985
rwrist -0.326607
rhand -21.1582 -23.643
rfingers 7.12502
rthumb 5.22163 -53.5587
lclavicle 2.40405e-015 1.49089e-015
lhumerus -40.9624 -20.0159 95.1137
lradius 27.7157
lwrist 34.1849
lhand -25.28 -4.11169
lfingers 7.12502
lthumb 1.24113 25.8644
rfemur -21.9214 20.0939 14.9626
rtibia 26.2169
rfoot -14.5167 -18.7507
rtoes -13.4053
lfemur 0 0 0
ltibia 0
lfoot 0 0
ltoes 0
595
root 7.10031 15.7031 24.9697 64.4223 -87.5324 -49.4669
lowerback -18.1199 0.256037 -0.492842
upperback -6.54838 -0.0272699 1.22878
thorax 3.12737 -0.165182 1.56331
lowerneck -19.6916 7.96164 8.85549
upperneck 25.9085 9.42538 -4.03068
head 12.5006 4.46728 -1.42846
rclavicle -3.72721e-015 9.44227e-015
rhumerus -38.5222 -1.18196 -81.8333
rradius 23.599
rwrist -1.06356
rhand -21.12 -23.4248
rfingers 7.12502
rthumb 5.25847 -53.3395
lclavicle -3.72721e-015 9.44227e-015
lhumerus -41.043 -20.4865 95.3782
lradius 28.1922
lwrist 34.4348
lhand -25.2431 -4.21642
lfingers 7.12502
lthumb 1.27681 25.7595
rfemur -22.0539 20.2029 14.8745
rtibia 26.2035
rfoot -14.4641 -18.926
rtoes -13.3623
lfemur 0 0 0
ltibia 0
lfoot 0 0
ltoes 0
596
root 7.10883 15.7062 24.9703 62.8491 -87.4985 -47.7767
lowerback -18.0764 0.274508 -0.491498
upperback -6.56838 -0.00422458 1.24566
thorax 3.08264 -0.15348 1.5849
lowerneck -19.8232 7.88967 8.8035
upperneck 25.8036 9.32699 -4.03095
head 12.4743 4.41878 -1.43396
rclavicle -5.14355e-015 -5.96354e-015
rhumerus -38.9082 -0.470591 -82.2499
rradius 24.2692
rwrist -1.88544
rhand -20.873 -23.1299
rfingers 7.12502
rthumb 5.49698 -53.0386
lclavicle -5.14355e-015 -5.96354e-015
lhumerus -41.0869 -20.8414 95.5815
lradius 28.668
lwrist 34.6992
lhand -25.1926 -4.37957
lfingers 7.12502
lthumb 1.32556 25.5961
rfemur -22.1954 20.3379 14.7778
rtibia 26.191
rfoot -14.4079 -19.1322
rtoes -13.3233
lfemur 0 0 0
ltibia 0
lfoot 0 0
ltoes 0
597
root 7.11739 15.7095 24.9709 61.1886 -87.4602 -45.9933
lowerback -18.0418 0.29112 -0.491316
upperback -6.58704 0.0166131 1.26129
thorax 3.04401 -0.142912 1.60538
lowerneck -19.9572 7.81706 8.76229
upperneck 25.6974 9.22652 -4.03978
head 12.449 4.36923 -1.44475
rclavicle -1.62755e-015 -6.65929e-015
rhumerus -39.2884 0.23062 -82.6555
rradius 24.9736
rwrist -2.73679
rhand -20.5342 -22.8206
rfingers 7.12502
rthumb 5.82407 -52.7205
lclavicle -1.62755e-015 -6.65929e-015
lhumerus -41.1015 -21.1013 95.7324
lradius 29.1526
lwrist 34.992
lhand -25.1209 -4.58896
lfingers 7.12502
lthumb 1.39482 25.3862
rfemur -22.3452 20.4751 14.6755
rtibia 26.1821
rfoot -14.3546 -19.348
rtoes -13.2763
lfemur 0 0 0
ltibia 0
lfoot 0 0
ltoes 0
598
root 7.12578 15.7128 24.9715 59.4505 -87.4212 -44.1292
lowerback -18.0155 0.302141 -0.500242
upperback -6.60469 0.0314576 1.27977
thorax 3.01098 -0.135251 1.63285
lowerneck -20.0746 7.74435 8.70292
upperneck 25.5778 9.12822 -4.03218
head 12.4133 4.32144 -1.44664
rclavicle 3.60297e-015 1.22253e-014
rhumerus -39.6569 0.912223 -83.0363
rradius 25.6921
rwrist -3.57182
rhand -20.0175 -22.4554
rfingers 7.12502
rthumb 6.32296 -52.3411
lclavicle 3.60297e-015 1.22253e-014
lhumerus -41.0862 -21.2509 95.8328
lradius 29.6351
lwrist 35.2916
lhand -25.0464 -4.83406
lfingers 7.12502
lthumb 1.46677 25.1406
rfemur -22.5007 20.58 14.5707
rtibia 26.1796
rfoot -14.3079 -19.5396
rtoes -13.2395
lfemur 0 0 0
ltibia 0
lfoot 0 0
ltoes 0
599
root 7.13406 15.7161 24.972 57.6596 -87.3806 -42.2123
lowerback -17.9954 0.304331 -0.517445
upperback -6.61983 0.0359893 1.30195
thorax 2.98407 -0.132592 1.66688
lowerneck -20.176 7.67643 8.63584
upperneck 25.4481 9.03758 -4.01449
head 12.3702 4.27796 -1.44267
rclavicle 1.21756e-015 -1.12313e-014
rhumerus -40.0094 1.59192 -83.4026
rradius 26.4136
rwrist -4.37136
rhand -19.4384 -22.0722
rfingers 7.12502
rthumb 6.88195 -51.9403
lclavicle 1.21756e-015 -1.12313e-014
lhumerus -41.0679 -21.3422 95.9111
lradius 30.1461
lwrist 35.6629
lhand -24.9951 -5.08876
lfingers 7.12502
lthumb 1.5163 24.8856
rfemur -22.6594 20.6573 14.4659
rtibia 26.1844
rfoot -14.2659 -19.7108
rtoes -13.2183
lfemur 0 0 0
ltibia 0
lfoot 0 0
ltoes 0
600
root 7.14198 15.7193 24.9725 55.8531 -87.3404 -40.2826
lowerback -17.9833 0.302704 -0.536897
upperback -6.63123 0.036113 1.3216
thorax 2.96549 -0.132115 1.69866
lowerneck -20.259 7.60967 8.56031
upperneck 25.3071 8.94742 -3.979
head 12.3177 4.23661 -1.43116
rclavicle -3.97569e-015 -7.15625e-015
rhumerus -40.3376 2.2211 -83.7395
rradius 27.1133
rwrist -5.07809
rhand -18.8913 -21.6881
rfingers 7.12502
rthumb 7.41007 -51.5383
lclavicle -3.97569e-015 -7.15625e-015
lhumerus -41.0554 -21.4052 95.9752
lradius 30.6877
lwrist 36.106
lhand -24.9788 -5.34494
lfingers 7.12502
lthumb 1.53201 24.6293
rfemur -22.818 20.6909 14.3634
rtibia 26.197
rfoot -14.2305 -19.8428
rtoes -13.2102
lfemur 0 0 0
ltibia 0
lfoot 0 0
ltoes 0
